<?xml version="1.0" ?>
<svg xmlns="http://www.w3.org/2000/svg" viewBox="0 0 536 224" width="536" height="224">
  <rect x="0" y="0" width="536" height="224" fill="#ffffff"/>
  <g id="icon" transform="translate(40,40)">
    <rect x="16" y="0" width="8" height="8" fill="#222a2f"/>
    <rect x="24" y="0" width="8" height="8" fill="#222a2f"/>
    <rect x="32" y="0" width="8" height="8" fill="#222a2f"/>
    <rect x="40" y="0" width="8" height="8" fill="#222a2f"/>
    <rect x="48" y="0" width="8" height="8" fill="#222a2f"/>
    <rect x="56" y="0" width="8" height="8" fill="#222a2f"/>
    <rect x="64" y="0" width="8" height="8" fill="#222a2f"/>
    <rect x="72" y="0" width="8" height="8" fill="#222a2f"/>
    <rect x="80" y="0" width="8" height="8" fill="#222a2f"/>
    <rect x="88" y="0" width="8" height="8" fill="#222a2f"/>
    <rect x="16" y="8" width="8" height="8" fill="#e44d26"/>
    <rect x="24" y="8" width="8" height="8" fill="#e44d26"/>
    <rect x="32" y="8" width="8" height="8" fill="#e44d26"/>
    <rect x="40" y="8" width="8" height="8" fill="#e44d26"/>
    <rect x="48" y="8" width="8" height="8" fill="#e44d26"/>
    <rect x="56" y="8" width="8" height="8" fill="#e44d26"/>
    <rect x="64" y="8" width="8" height="8" fill="#e44d26"/>
    <rect x="72" y="8" width="8" height="8" fill="#e44d26"/>
    <rect x="80" y="8" width="8" height="8" fill="#e44d26"/>
    <rect x="88" y="8" width="8" height="8" fill="#222a2f"/>
    <rect x="0" y="16" width="8" height="8" fill="#222a2f"/>
    <rect x="8" y="16" width="8" height="8" fill="#e44d26"/>
    <rect x="16" y="16" width="8" height="8" fill="#e44d26"/>
    <rect x="24" y="16" width="8" height="8" fill="#e44d26"/>
    <rect x="32" y="16" width="8" height="8" fill="#e44d26"/>
    <rect x="40" y="16" width="8" height="8" fill="#e44d26"/>
    <rect x="48" y="16" width="8" height="8" fill="#e44d26"/>
    <rect x="56" y="16" width="8" height="8" fill="#e44d26"/>
    <rect x="64" y="16" width="8" height="8" fill="#e44d26"/>
    <rect x="72" y="16" width="8" height="8" fill="#e44d26"/>
    <rect x="80" y="16" width="8" height="8" fill="#e44d26"/>
    <rect x="88" y="16" width="8" height="8" fill="#222a2f"/>
    <rect x="0" y="24" width="8" height="8" fill="#222a2f"/>
    <rect x="8" y="24" width="8" height="8" fill="#e44d26"/>
    <rect x="16" y="24" width="8" height="8" fill="#e44d26"/>
    <rect x="24" y="24" width="8" height="8" fill="#e44d26"/>
    <rect x="32" y="24" width="8" height="8" fill="#e44d26"/>
    <rect x="40" y="24" width="8" height="8" fill="#e44d26"/>
    <rect x="48" y="24" width="8" height="8" fill="#e44d26"/>
    <rect x="56" y="24" width="8" height="8" fill="#e44d26"/>
    <rect x="64" y="24" width="8" height="8" fill="#e44d26"/>
    <rect x="72" y="24" width="8" height="8" fill="#e44d26"/>
    <rect x="80" y="24" width="8" height="8" fill="#e44d26"/>
    <rect x="88" y="24" width="8" height="8" fill="#222a2f"/>
    <rect x="0" y="32" width="8" height="8" fill="#222a2f"/>
    <rect x="8" y="32" width="8" height="8" fill="#e44d26"/>
    <rect x="16" y="32" width="8" height="8" fill="#e44d26"/>
    <rect x="24" y="32" width="8" height="8" fill="#e44d26"/>
    <rect x="32" y="32" width="8" height="8" fill="#e44d26"/>
    <rect x="40" y="32" width="8" height="8" fill="#e44d26"/>
    <rect x="48" y="32" width="8" height="8" fill="#e44d26"/>
    <rect x="56" y="32" width="8" height="8" fill="#e44d26"/>
    <rect x="64" y="32" width="8" height="8" fill="#e44d26"/>
    <rect x="72" y="32" width="8" height="8" fill="#e44d26"/>
    <rect x="80" y="32" width="8" height="8" fill="#e44d26"/>
    <rect x="88" y="32" width="8" height="8" fill="#222a2f"/>
    <rect x="0" y="40" width="8" height="8" fill="#222a2f"/>
    <rect x="8" y="40" width="8" height="8" fill="#e44d26"/>
    <rect x="16" y="40" width="8" height="8" fill="#e44d26"/>
    <rect x="24" y="40" width="8" height="8" fill="#e44d26"/>
    <rect x="32" y="40" width="8" height="8" fill="#e44d26"/>
    <rect x="40" y="40" width="8" height="8" fill="#e44d26"/>
    <rect x="48" y="40" width="8" height="8" fill="#e44d26"/>
    <rect x="56" y="40" width="8" height="8" fill="#e44d26"/>
    <rect x="64" y="40" width="8" height="8" fill="#e44d26"/>
    <rect x="72" y="40" width="8" height="8" fill="#e44d26"/>
    <rect x="80" y="40" width="8" height="8" fill="#e44d26"/>
    <rect x="88" y="40" width="8" height="8" fill="#222a2f"/>
    <rect x="0" y="48" width="8" height="8" fill="#222a2f"/>
    <rect x="8" y="48" width="8" height="8" fill="#e44d26"/>
    <rect x="16" y="48" width="8" height="8" fill="#e44d26"/>
    <rect x="24" y="48" width="8" height="8" fill="#e44d26"/>
    <rect x="32" y="48" width="8" height="8" fill="#e44d26"/>
    <rect x="40" y="48" width="8" height="8" fill="#e44d26"/>
    <rect x="48" y="48" width="8" height="8" fill="#e44d26"/>
    <rect x="56" y="48" width="8" height="8" fill="#e44d26"/>
    <rect x="64" y="48" width="8" height="8" fill="#e44d26"/>
    <rect x="72" y="48" width="8" height="8" fill="#e44d26"/>
    <rect x="80" y="48" width="8" height="8" fill="#e44d26"/>
    <rect x="88" y="48" width="8" height="8" fill="#222a2f"/>
    <rect x="0" y="56" width="8" height="8" fill="#222a2f"/>
    <rect x="8" y="56" width="8" height="8" fill="#e44d26"/>
    <rect x="16" y="56" width="8" height="8" fill="#e44d26"/>
    <rect x="24" y="56" width="8" height="8" fill="#e44d26"/>
    <rect x="32" y="56" width="8" height="8" fill="#e44d26"/>
    <rect x="40" y="56" width="8" height="8" fill="#e44d26"/>
    <rect x="48" y="56" width="8" height="8" fill="#e44d26"/>
    <rect x="56" y="56" width="8" height="8" fill="#e44d26"/>
    <rect x="64" y="56" width="8" height="8" fill="#e44d26"/>
    <rect x="72" y="56" width="8" height="8" fill="#e44d26"/>
    <rect x="80" y="56" width="8" height="8" fill="#e44d26"/>
    <rect x="88" y="56" width="8" height="8" fill="#222a2f"/>
    <rect x="0" y="64" width="8" height="8" fill="#222a2f"/>
    <rect x="8" y="64" width="8" height="8" fill="#e44d26"/>
    <rect x="16" y="64" width="8" height="8" fill="#e44d26"/>
    <rect x="24" y="64" width="8" height="8" fill="#e44d26"/>
    <rect x="32" y="64" width="8" height="8" fill="#e44d26"/>
    <rect x="40" y="64" width="8" height="8" fill="#e44d26"/>
    <rect x="48" y="64" width="8" height="8" fill="#e44d26"/>
    <rect x="56" y="64" width="8" height="8" fill="#e44d26"/>
    <rect x="64" y="64" width="8" height="8" fill="#e44d26"/>
    <rect x="72" y="64" width="8" height="8" fill="#e44d26"/>
    <rect x="80" y="64" width="8" height="8" fill="#e44d26"/>
    <rect x="88" y="64" width="8" height="8" fill="#222a2f"/>
    <rect x="0" y="72" width="8" height="8" fill="#222a2f"/>
    <rect x="8" y="72" width="8" height="8" fill="#e44d26"/>
    <rect x="16" y="72" width="8" height="8" fill="#e44d26"/>
    <rect x="24" y="72" width="8" height="8" fill="#e44d26"/>
    <rect x="32" y="72" width="8" height="8" fill="#e44d26"/>
    <rect x="40" y="72" width="8" height="8" fill="#e44d26"/>
    <rect x="48" y="72" width="8" height="8" fill="#e44d26"/>
    <rect x="56" y="72" width="8" height="8" fill="#e44d26"/>
    <rect x="64" y="72" width="8" height="8" fill="#e44d26"/>
    <rect x="72" y="72" width="8" height="8" fill="#e44d26"/>
    <rect x="80" y="72" width="8" height="8" fill="#e44d26"/>
    <rect x="88" y="72" width="8" height="8" fill="#222a2f"/>
    <rect x="0" y="80" width="8" height="8" fill="#222a2f"/>
    <rect x="8" y="80" width="8" height="8" fill="#e44d26"/>
    <rect x="16" y="80" width="8" height="8" fill="#e44d26"/>
    <rect x="24" y="80" width="8" height="8" fill="#e44d26"/>
    <rect x="32" y="80" width="8" height="8" fill="#e44d26"/>
    <rect x="40" y="80" width="8" height="8" fill="#e44d26"/>
    <rect x="48" y="80" width="8" height="8" fill="#e44d26"/>
    <rect x="56" y="80" width="8" height="8" fill="#e44d26"/>
    <rect x="64" y="80" width="8" height="8" fill="#e44d26"/>
    <rect x="72" y="80" width="8" height="8" fill="#e44d26"/>
    <rect x="80" y="80" width="8" height="8" fill="#e44d26"/>
    <rect x="88" y="80" width="8" height="8" fill="#222a2f"/>
    <rect x="0" y="88" width="8" height="8" fill="#222a2f"/>
    <rect x="8" y="88" width="8" height="8" fill="#222a2f"/>
    <rect x="16" y="88" width="8" height="8" fill="#222a2f"/>
    <rect x="24" y="88" width="8" height="8" fill="#222a2f"/>
    <rect x="32" y="88" width="8" height="8" fill="#222a2f"/>
    <rect x="40" y="88" width="8" height="8" fill="#222a2f"/>
    <rect x="48" y="88" width="8" height="8" fill="#222a2f"/>
    <rect x="56" y="88" width="8" height="8" fill="#222a2f"/>
    <rect x="64" y="88" width="8" height="8" fill="#222a2f"/>
    <rect x="72" y="88" width="8" height="8" fill="#222a2f"/>
    <rect x="80" y="88" width="8" height="8" fill="#222a2f"/>
    <rect x="88" y="88" width="8" height="8" fill="#222a2f"/>
    <rect x="24" y="0" width="8" height="8" fill="#f16a42"/>
    <rect x="32" y="8" width="8" height="8" fill="#f16a42"/>
    <rect x="40" y="16" width="8" height="8" fill="#f16a42"/>
    <rect x="48" y="24" width="8" height="8" fill="#f16a42"/>
    <rect x="56" y="32" width="8" height="8" fill="#f16a42"/>
    <rect x="64" y="40" width="8" height="8" fill="#f16a42"/>
    <rect x="72" y="48" width="8" height="8" fill="#f16a42"/>
    <rect x="80" y="56" width="8" height="8" fill="#f16a42"/>
    <rect x="72" y="16" width="8" height="8" fill="#222a2f"/>
  </g>
  <g id="logotype" transform="translate(160,40)">
    <rect x="0" y="0" width="8" height="8" fill="#222a2f"/>
    <rect x="8" y="0" width="8" height="8" fill="#222a2f"/>
    <rect x="16" y="0" width="8" height="8" fill="#222a2f"/>
    <rect x="24" y="0" width="8" height="8" fill="#222a2f"/>
    <rect x="0" y="8" width="8" height="8" fill="#222a2f"/>
    <rect x="32" y="8" width="8" height="8" fill="#222a2f"/>
    <rect x="0" y="16" width="8" height="8" fill="#222a2f"/>
    <rect x="32" y="16" width="8" height="8" fill="#222a2f"/>
    <rect x="0" y="24" width="8" height="8" fill="#222a2f"/>
    <rect x="8" y="24" width="8" height="8" fill="#222a2f"/>
    <rect x="16" y="24" width="8" height="8" fill="#222a2f"/>
    <rect x="24" y="24" width="8" height="8" fill="#222a2f"/>
    <rect x="0" y="32" width="8" height="8" fill="#222a2f"/>
    <rect x="0" y="40" width="8" height="8" fill="#222a2f"/>
    <rect x="0" y="48" width="8" height="8" fill="#222a2f"/>
    <rect x="48" y="0" width="8" height="8" fill="#222a2f"/>
    <rect x="56" y="0" width="8" height="8" fill="#222a2f"/>
    <rect x="64" y="0" width="8" height="8" fill="#222a2f"/>
    <rect x="72" y="0" width="8" height="8" fill="#222a2f"/>
    <rect x="48" y="8" width="8" height="8" fill="#222a2f"/>
    <rect x="80" y="8" width="8" height="8" fill="#222a2f"/>
    <rect x="48" y="16" width="8" height="8" fill="#222a2f"/>
    <rect x="80" y="16" width="8" height="8" fill="#222a2f"/>
    <rect x="48" y="24" width="8" height="8" fill="#222a2f"/>
    <rect x="56" y="24" width="8" height="8" fill="#222a2f"/>
    <rect x="64" y="24" width="8" height="8" fill="#222a2f"/>
    <rect x="72" y="24" width="8" height="8" fill="#222a2f"/>
    <rect x="48" y="32" width="8" height="8" fill="#222a2f"/>
    <rect x="64" y="32" width="8" height="8" fill="#222a2f"/>
    <rect x="48" y="40" width="8" height="8" fill="#222a2f"/>
    <rect x="72" y="40" width="8" height="8" fill="#222a2f"/>
    <rect x="48" y="48" width="8" height="8" fill="#222a2f"/>
    <rect x="80" y="48" width="8" height="8" fill="#222a2f"/>
    <rect x="104" y="0" width="8" height="8" fill="#222a2f"/>
    <rect x="112" y="0" width="8" height="8" fill="#222a2f"/>
    <rect x="120" y="0" width="8" height="8" fill="#222a2f"/>
    <rect x="96" y="8" width="8" height="8" fill="#222a2f"/>
    <rect x="128" y="8" width="8" height="8" fill="#222a2f"/>
    <rect x="96" y="16" width="8" height="8" fill="#222a2f"/>
    <rect x="128" y="16" width="8" height="8" fill="#222a2f"/>
    <rect x="96" y="24" width="8" height="8" fill="#222a2f"/>
    <rect x="128" y="24" width="8" height="8" fill="#222a2f"/>
    <rect x="96" y="32" width="8" height="8" fill="#222a2f"/>
    <rect x="128" y="32" width="8" height="8" fill="#222a2f"/>
    <rect x="96" y="40" width="8" height="8" fill="#222a2f"/>
    <rect x="128" y="40" width="8" height="8" fill="#222a2f"/>
    <rect x="104" y="48" width="8" height="8" fill="#222a2f"/>
    <rect x="112" y="48" width="8" height="8" fill="#222a2f"/>
    <rect x="120" y="48" width="8" height="8" fill="#222a2f"/>
    <rect x="160" y="0" width="8" height="8" fill="#222a2f"/>
    <rect x="168" y="0" width="8" height="8" fill="#222a2f"/>
    <rect x="176" y="0" width="8" height="8" fill="#222a2f"/>
    <rect x="168" y="8" width="8" height="8" fill="#222a2f"/>
    <rect x="168" y="16" width="8" height="8" fill="#222a2f"/>
    <rect x="168" y="24" width="8" height="8" fill="#222a2f"/>
    <rect x="144" y="32" width="8" height="8" fill="#222a2f"/>
    <rect x="168" y="32" width="8" height="8" fill="#222a2f"/>
    <rect x="144" y="40" width="8" height="8" fill="#222a2f"/>
    <rect x="168" y="40" width="8" height="8" fill="#222a2f"/>
    <rect x="152" y="48" width="8" height="8" fill="#222a2f"/>
    <rect x="160" y="48" width="8" height="8" fill="#222a2f"/>
    <rect x="192" y="0" width="8" height="8" fill="#222a2f"/>
    <rect x="200" y="0" width="8" height="8" fill="#222a2f"/>
    <rect x="208" y="0" width="8" height="8" fill="#222a2f"/>
    <rect x="216" y="0" width="8" height="8" fill="#222a2f"/>
    <rect x="224" y="0" width="8" height="8" fill="#222a2f"/>
    <rect x="192" y="8" width="8" height="8" fill="#222a2f"/>
    <rect x="192" y="16" width="8" height="8" fill="#222a2f"/>
    <rect x="192" y="24" width="8" height="8" fill="#222a2f"/>
    <rect x="200" y="24" width="8" height="8" fill="#222a2f"/>
    <rect x="208" y="24" width="8" height="8" fill="#222a2f"/>
    <rect x="216" y="24" width="8" height="8" fill="#222a2f"/>
    <rect x="224" y="24" width="8" height="8" fill="#222a2f"/>
    <rect x="192" y="32" width="8" height="8" fill="#222a2f"/>
    <rect x="192" y="40" width="8" height="8" fill="#222a2f"/>
    <rect x="192" y="48" width="8" height="8" fill="#222a2f"/>
    <rect x="200" y="48" width="8" height="8" fill="#222a2f"/>
    <rect x="208" y="48" width="8" height="8" fill="#222a2f"/>
    <rect x="216" y="48" width="8" height="8" fill="#222a2f"/>
    <rect x="224" y="48" width="8" height="8" fill="#222a2f"/>
    <rect x="248" y="0" width="8" height="8" fill="#222a2f"/>
    <rect x="256" y="0" width="8" height="8" fill="#222a2f"/>
    <rect x="264" y="0" width="8" height="8" fill="#222a2f"/>
    <rect x="272" y="0" width="8" height="8" fill="#222a2f"/>
    <rect x="240" y="8" width="8" height="8" fill="#222a2f"/>
    <rect x="240" y="16" width="8" height="8" fill="#222a2f"/>
    <rect x="240" y="24" width="8" height="8" fill="#222a2f"/>
    <rect x="240" y="32" width="8" height="8" fill="#222a2f"/>
    <rect x="240" y="40" width="8" height="8" fill="#222a2f"/>
    <rect x="248" y="48" width="8" height="8" fill="#222a2f"/>
    <rect x="256" y="48" width="8" height="8" fill="#222a2f"/>
    <rect x="264" y="48" width="8" height="8" fill="#222a2f"/>
    <rect x="272" y="48" width="8" height="8" fill="#222a2f"/>
    <rect x="288" y="0" width="8" height="8" fill="#222a2f"/>
    <rect x="296" y="0" width="8" height="8" fill="#222a2f"/>
    <rect x="304" y="0" width="8" height="8" fill="#222a2f"/>
    <rect x="312" y="0" width="8" height="8" fill="#222a2f"/>
    <rect x="320" y="0" width="8" height="8" fill="#222a2f"/>
    <rect x="304" y="8" width="8" height="8" fill="#222a2f"/>
    <rect x="304" y="16" width="8" height="8" fill="#222a2f"/>
    <rect x="304" y="24" width="8" height="8" fill="#222a2f"/>
    <rect x="304" y="32" width="8" height="8" fill="#222a2f"/>
    <rect x="304" y="40" width="8" height="8" fill="#222a2f"/>
    <rect x="304" y="48" width="8" height="8" fill="#222a2f"/>
    <g transform="translate(0,80) scale(1.6)">
      <rect x="0" y="0" width="8" height="8" fill="#222a2f"/>
      <rect x="8" y="0" width="8" height="8" fill="#222a2f"/>
      <rect x="16" y="0" width="8" height="8" fill="#222a2f"/>
      <rect x="24" y="0" width="8" height="8" fill="#222a2f"/>
      <rect x="0" y="8" width="8" height="8" fill="#222a2f"/>
      <rect x="32" y="8" width="8" height="8" fill="#222a2f"/>
      <rect x="0" y="16" width="8" height="8" fill="#222a2f"/>
      <rect x="32" y="16" width="8" height="8" fill="#222a2f"/>
      <rect x="0" y="24" width="8" height="8" fill="#222a2f"/>
      <rect x="8" y="24" width="8" height="8" fill="#222a2f"/>
      <rect x="16" y="24" width="8" height="8" fill="#222a2f"/>
      <rect x="24" y="24" width="8" height="8" fill="#222a2f"/>
      <rect x="0" y="32" width="8" height="8" fill="#222a2f"/>
      <rect x="32" y="32" width="8" height="8" fill="#222a2f"/>
      <rect x="0" y="40" width="8" height="8" fill="#222a2f"/>
      <rect x="32" y="40" width="8" height="8" fill="#222a2f"/>
      <rect x="0" y="48" width="8" height="8" fill="#222a2f"/>
      <rect x="8" y="48" width="8" height="8" fill="#222a2f"/>
      <rect x="16" y="48" width="8" height="8" fill="#222a2f"/>
      <rect x="24" y="48" width="8" height="8" fill="#222a2f"/>
      <rect x="48" y="0" width="8" height="8" fill="#222a2f"/>
      <rect x="56" y="0" width="8" height="8" fill="#222a2f"/>
      <rect x="64" y="0" width="8" height="8" fill="#222a2f"/>
      <rect x="72" y="0" width="8" height="8" fill="#222a2f"/>
      <rect x="48" y="8" width="8" height="8" fill="#222a2f"/>
      <rect x="80" y="8" width="8" height="8" fill="#222a2f"/>
      <rect x="48" y="16" width="8" height="8" fill="#222a2f"/>
      <rect x="80" y="16" width="8" height="8" fill="#222a2f"/>
      <rect x="48" y="24" width="8" height="8" fill="#222a2f"/>
      <rect x="56" y="24" width="8" height="8" fill="#222a2f"/>
      <rect x="64" y="24" width="8" height="8" fill="#222a2f"/>
      <rect x="72" y="24" width="8" height="8" fill="#222a2f"/>
      <rect x="48" y="32" width="8" height="8" fill="#222a2f"/>
      <rect x="64" y="32" width="8" height="8" fill="#222a2f"/>
      <rect x="48" y="40" width="8" height="8" fill="#222a2f"/>
      <rect x="72" y="40" width="8" height="8" fill="#222a2f"/>
      <rect x="48" y="48" width="8" height="8" fill="#222a2f"/>
      <rect x="80" y="48" width="8" height="8" fill="#222a2f"/>
      <rect x="96" y="0" width="8" height="8" fill="#222a2f"/>
      <rect x="104" y="0" width="8" height="8" fill="#222a2f"/>
      <rect x="112" y="0" width="8" height="8" fill="#222a2f"/>
      <rect x="120" y="0" width="8" height="8" fill="#222a2f"/>
      <rect x="128" y="0" width="8" height="8" fill="#222a2f"/>
      <rect x="112" y="8" width="8" height="8" fill="#222a2f"/>
      <rect x="112" y="16" width="8" height="8" fill="#222a2f"/>
      <rect x="112" y="24" width="8" height="8" fill="#222a2f"/>
      <rect x="112" y="32" width="8" height="8" fill="#222a2f"/>
      <rect x="112" y="40" width="8" height="8" fill="#222a2f"/>
      <rect x="96" y="48" width="8" height="8" fill="#222a2f"/>
      <rect x="104" y="48" width="8" height="8" fill="#222a2f"/>
      <rect x="112" y="48" width="8" height="8" fill="#222a2f"/>
      <rect x="120" y="48" width="8" height="8" fill="#222a2f"/>
      <rect x="128" y="48" width="8" height="8" fill="#222a2f"/>
      <rect x="152" y="0" width="8" height="8" fill="#222a2f"/>
      <rect x="160" y="0" width="8" height="8" fill="#222a2f"/>
      <rect x="168" y="0" width="8" height="8" fill="#222a2f"/>
      <rect x="176" y="0" width="8" height="8" fill="#222a2f"/>
      <rect x="144" y="8" width="8" height="8" fill="#222a2f"/>
      <rect x="144" y="16" width="8" height="8" fill="#222a2f"/>
      <rect x="144" y="24" width="8" height="8" fill="#222a2f"/>
      <rect x="144" y="32" width="8" height="8" fill="#222a2f"/>
      <rect x="144" y="40" width="8" height="8" fill="#222a2f"/>
      <rect x="152" y="48" width="8" height="8" fill="#222a2f"/>
      <rect x="160" y="48" width="8" height="8" fill="#222a2f"/>
      <rect x="168" y="48" width="8" height="8" fill="#222a2f"/>
      <rect x="176" y="48" width="8" height="8" fill="#222a2f"/>
      <rect x="192" y="0" width="8" height="8" fill="#222a2f"/>
      <rect x="224" y="0" width="8" height="8" fill="#222a2f"/>
      <rect x="192" y="8" width="8" height="8" fill="#222a2f"/>
      <rect x="216" y="8" width="8" height="8" fill="#222a2f"/>
      <rect x="192" y="16" width="8" height="8" fill="#222a2f"/>
      <rect x="208" y="16" width="8" height="8" fill="#222a2f"/>
      <rect x="192" y="24" width="8" height="8" fill="#222a2f"/>
      <rect x="200" y="24" width="8" height="8" fill="#222a2f"/>
      <rect x="192" y="32" width="8" height="8" fill="#222a2f"/>
      <rect x="208" y="32" width="8" height="8" fill="#222a2f"/>
      <rect x="192" y="40" width="8" height="8" fill="#222a2f"/>
      <rect x="216" y="40" width="8" height="8" fill="#222a2f"/>
      <rect x="192" y="48" width="8" height="8" fill="#222a2f"/>
      <rect x="224" y="48" width="8" height="8" fill="#222a2f"/>
    </g>
  </g>
  <g id="motifs" transform="translate(40,144)">
    <rect x="0" y="0" width="16" height="8" fill="#222a2f"/>
    <rect x="24" y="0" width="16" height="8" fill="#222a2f"/>
    <rect x="48" y="0" width="16" height="8" fill="#222a2f"/>
  </g>
</svg>
