<svg width="68" height="68" viewBox="0 0 68 68" fill="none" xmlns="http://www.w3.org/2000/svg">
<path d="M34 63.75C50.4305 63.75 63.75 50.4305 63.75 34C63.75 17.5695 50.4305 4.25 34 4.25C17.5695 4.25 4.25 17.5695 4.25 34C4.25 50.4305 17.5695 63.75 34 63.75Z" fill="#5865F2"/>
<path d="M48.7283 18.3632C45.9729 17.0984 43.065 16.1965 40.0775 15.68C40.0504 15.675 40.0223 15.6786 39.9974 15.6904C39.9724 15.7022 39.9518 15.7216 39.9385 15.7458C39.5424 16.4647 39.1829 17.2032 38.8613 17.9584C35.6411 17.4693 32.3654 17.4693 29.1452 17.9584C28.8215 17.2013 28.4563 16.4627 28.0512 15.7458C28.0373 15.7221 28.0166 15.7032 27.9918 15.6915C27.967 15.6797 27.9393 15.6758 27.9122 15.68C24.9244 16.1954 22.0164 17.0973 19.2614 18.3632C19.2379 18.3732 19.218 18.3902 19.2045 18.412C14.2794 25.462 12.0511 34.0469 12.9258 42.6023C12.9279 42.6217 12.9339 42.6405 12.9434 42.6576C12.9528 42.6747 12.9657 42.6897 12.9811 42.7018C16.1892 45.0781 19.7777 46.8921 23.5935 48.0663C23.6203 48.0743 23.649 48.0739 23.6757 48.0652C23.7023 48.0565 23.7257 48.0398 23.7426 48.0174C24.562 46.9019 25.2882 45.7208 25.9136 44.486C25.9222 44.4691 25.9271 44.4505 25.928 44.4315C25.9289 44.4125 25.9258 44.3936 25.9188 44.3759C25.9119 44.3582 25.9012 44.3422 25.8876 44.3289C25.874 44.3156 25.8578 44.3054 25.8399 44.2988C24.6948 43.8605 23.5863 43.3321 22.5247 42.7187C22.5054 42.7073 22.4892 42.6914 22.4775 42.6723C22.4658 42.6532 22.459 42.6316 22.4577 42.6092C22.4564 42.5869 22.4606 42.5646 22.4699 42.5442C22.4793 42.5239 22.4935 42.5062 22.5113 42.4926C22.7341 42.3257 22.9569 42.152 23.1697 41.9766C23.1886 41.961 23.2114 41.951 23.2357 41.9477C23.26 41.9444 23.2847 41.948 23.307 41.958C26.6487 43.5266 30.2949 44.3397 33.9864 44.3397C37.6779 44.3397 41.3241 43.5266 44.6658 41.958C44.6882 41.9474 44.7132 41.9434 44.7378 41.9464C44.7624 41.9494 44.7857 41.9593 44.8048 41.975C45.0176 42.1504 45.2405 42.3258 45.4649 42.4927C45.4828 42.5061 45.4972 42.5238 45.5067 42.544C45.5162 42.5643 45.5205 42.5865 45.5194 42.6089C45.5182 42.6312 45.5116 42.6529 45.5 42.6721C45.4885 42.6913 45.4724 42.7073 45.4532 42.7188C44.394 43.3374 43.2844 43.8654 42.1363 44.2973C42.1185 44.3041 42.1023 44.3146 42.0888 44.3281C42.0753 44.3416 42.0649 44.3578 42.0581 44.3756C42.0513 44.3934 42.0483 44.4125 42.0494 44.4315C42.0504 44.4506 42.0555 44.4692 42.0643 44.4861C42.7001 45.7141 43.4252 46.8938 44.2336 48.0157C44.25 48.0387 44.2733 48.056 44.3 48.0651C44.3268 48.0741 44.3557 48.0746 44.3827 48.0663C48.2052 46.896 51.7999 45.0818 55.0119 42.7018C55.0275 42.6904 55.0405 42.6757 55.05 42.6589C55.0595 42.642 55.0654 42.6233 55.0671 42.6041C55.9618 34.0465 53.7299 25.4542 48.7835 18.4138C48.7717 18.3909 48.7521 18.3729 48.7283 18.3632ZM26.9523 37.774C25.8803 37.7056 24.8784 37.2178 24.1636 36.416C23.4487 35.6143 23.0784 34.5633 23.1328 33.4905C23.0725 32.4163 23.4407 31.362 24.1568 30.5589C24.8728 29.7559 25.8782 29.2697 26.9523 29.207C27.4852 29.2351 28.0072 29.3685 28.4882 29.5995C28.9692 29.8305 29.3997 30.1544 29.7548 30.5527C30.1099 30.951 30.3826 31.4156 30.5572 31.9199C30.7317 32.4241 30.8047 32.9579 30.7718 33.4905C30.8321 34.5647 30.4639 35.619 29.7478 36.4221C29.0318 37.2251 28.0264 37.7113 26.9523 37.774V37.774ZM41.0742 37.774C40.0023 37.7056 39.0004 37.2177 38.2855 36.416C37.5707 35.6143 37.2004 34.5633 37.2548 33.4905C37.1944 32.4162 37.5627 31.3619 38.2787 30.5589C38.9948 29.7558 40.0002 29.2696 41.0743 29.2069C41.6072 29.2351 42.1292 29.3685 42.6102 29.5994C43.0912 29.8304 43.5217 30.1544 43.8768 30.5526C44.232 30.9509 44.5047 31.4156 44.6792 31.9198C44.8538 32.4241 44.9267 32.9579 44.8938 33.4905C44.9252 34.0227 44.8512 34.5559 44.6761 35.0595C44.5009 35.5631 44.2281 36.0272 43.8733 36.4251C43.5185 36.8231 43.0886 37.1471 42.6083 37.3785C42.1279 37.61 41.6067 37.7444 41.0743 37.774H41.0742Z" fill="white"/>
</svg>
