<svg width="68" height="68" viewBox="0 0 68 68" fill="none" xmlns="http://www.w3.org/2000/svg">
<path d="M61.625 12.75H6.375C5.81141 12.75 5.27091 12.9739 4.8724 13.3724C4.47388 13.7709 4.25 14.3114 4.25 14.875V53.125C4.25 53.6886 4.47388 54.2291 4.8724 54.6276C5.27091 55.0261 5.81141 55.25 6.375 55.25H61.625C62.1886 55.25 62.7291 55.0261 63.1276 54.6276C63.5261 54.2291 63.75 53.6886 63.75 53.125V14.875C63.75 14.3114 63.5261 13.7709 63.1276 13.3724C62.7291 12.9739 62.1886 12.75 61.625 12.75ZM57.5875 17L34 31.5138L10.4125 17H57.5875ZM59.5 51H8.5V20.8038L32.895 35.8063C33.218 35.9928 33.5845 36.0909 33.9575 36.0909C34.3305 36.0909 34.697 35.9928 35.02 35.8063L59.5 20.8038V51Z" fill="black"/>
</svg>
