<svg width="68" height="68" viewBox="0 0 68 68" fill="none" xmlns="http://www.w3.org/2000/svg">
<rect width="68" height="68" rx="5" fill="#008184"/>
<g clip-path="url(#clip0_1057_8114)">
<path fill-rule="evenodd" clip-rule="evenodd" d="M59.499 21C59.499 14.1022 53.8541 8.5 46.9351 8.5C46.298 8.5 45.6433 8.5365 45.0063 8.64599C39.6268 9.43066 36.0168 13.427 33.9995 16.4927C31.9822 13.427 28.3723 9.43066 22.9928 8.64599C22.3557 8.55474 21.701 8.5 21.064 8.5C14.1272 8.5 8.5 14.1022 8.5 21C8.5 27.8978 14.1449 33.5 21.064 33.5C21.701 33.5 22.3557 33.4635 23.0105 33.354C28.39 32.5511 31.9999 28.5547 34.0172 25.4891C36.0345 28.5547 39.6445 32.5511 45.024 33.354C45.661 33.4453 46.3157 33.5 46.9705 33.5C53.8541 33.5 59.499 27.8978 59.499 21ZM22.3727 28.9745C21.9303 29.0475 21.488 29.0657 21.0456 29.0657C16.4801 29.0657 12.7817 25.4343 12.7817 21C12.7817 16.5475 16.4978 12.9343 21.0633 12.9343C21.5057 12.9343 21.948 12.9708 22.3904 13.0256C27.4691 13.7737 30.5659 18.938 31.6276 21C30.5482 23.0803 27.4337 28.2263 22.3727 28.9745ZM45.6078 13.0256C40.5292 13.7737 37.4147 18.938 36.3707 21C37.4147 23.0621 40.5292 28.2263 45.6078 28.9745C46.0502 29.0292 46.4926 29.0657 46.935 29.0657C51.4828 29.0657 55.1989 25.4526 55.1989 21C55.1989 16.5657 51.5005 12.9343 46.935 12.9343C46.4926 12.9343 46.0502 12.9708 45.6078 13.0256ZM17.5201 19.661H25.1186V22.0642H17.5201V19.661ZM50.4409 22.0817H47.8784V24.6077H45.4227V22.0817H42.8602V19.661H45.4227V17.135H47.8784V19.661H50.4409V22.0817Z" fill="white"/>
</g>
<g clip-path="url(#clip1_1057_8114)">
<rect width="55" height="20" transform="translate(6.5 39.5)" fill="white"/>
<path d="M16.9672 53.5V45.05H19.7362C22.8952 45.05 23.9482 46.545 23.9482 49.197C23.9482 51.199 23.3372 53.5 19.7492 53.5H16.9672ZM19.6712 46.753H19.0602V51.771H19.8532C21.5822 51.771 21.7122 50.718 21.7122 49.288C21.7122 47.637 21.5432 46.753 19.6712 46.753ZM29.4161 44.933C31.8211 44.933 33.0431 46.051 33.0431 49.275C33.0431 51.719 32.1461 53.63 29.4291 53.63C26.9981 53.63 25.8801 52.161 25.8801 49.366C25.8801 46.818 26.8551 44.933 29.4161 44.933ZM29.4291 51.927C30.6511 51.927 30.8201 51.225 30.8201 49.275C30.8201 47.208 30.6511 46.636 29.4161 46.636C28.2981 46.636 28.1031 47.299 28.1031 49.366C28.1031 51.069 28.2201 51.927 29.4291 51.927ZM41.371 51.238L41.852 52.876C40.864 53.409 40.058 53.63 39.07 53.63C36.561 53.63 35.3 52.057 35.3 49.262C35.3 46.506 36.873 44.933 39.356 44.933C40.24 44.933 41.02 45.154 41.8 45.635L41.111 47.364C40.409 46.818 39.915 46.636 39.239 46.636C38.134 46.636 37.523 47.429 37.523 49.223C37.523 50.978 38.03 51.94 39.291 51.94C40.084 51.94 40.708 51.693 41.371 51.238ZM48.6719 51.238C48.6719 49.808 44.5509 50.289 44.5509 47.377C44.5509 45.947 46.0329 44.933 47.8139 44.933C48.7629 44.933 49.5559 45.076 50.5309 45.609L49.9589 47.52C49.3999 47 48.6979 46.636 47.8139 46.636C47.2419 46.636 46.7739 46.805 46.7739 47.247C46.7739 48.456 50.8949 48.157 50.8949 51.043C50.8949 52.915 49.1529 53.63 47.2419 53.63C46.4619 53.63 45.3959 53.513 44.3819 52.85L45.0709 50.952C45.7339 51.563 46.5269 51.927 47.4629 51.927C48.1389 51.927 48.6719 51.732 48.6719 51.238Z" fill="#008184"/>
</g>
<defs>
<clipPath id="clip0_1057_8114">
<rect width="51" height="25" fill="white" transform="translate(8.5 8.5)"/>
</clipPath>
<clipPath id="clip1_1057_8114">
<rect width="55" height="20" fill="white" transform="translate(6.5 39.5)"/>
</clipPath>
</defs>
</svg>
