<svg width="68" height="68" viewBox="0 0 68 68" fill="none" xmlns="http://www.w3.org/2000/svg">
<rect width="68" height="68" rx="5" fill="#008184"/>
<g clip-path="url(#clip0_1068_8228)">
<path fill-rule="evenodd" clip-rule="evenodd" d="M59.499 21C59.499 14.1022 53.8541 8.5 46.9351 8.5C46.298 8.5 45.6433 8.5365 45.0063 8.64599C39.6268 9.43066 36.0168 13.427 33.9995 16.4927C31.9822 13.427 28.3723 9.43066 22.9928 8.64599C22.3557 8.55474 21.701 8.5 21.064 8.5C14.1272 8.5 8.5 14.1022 8.5 21C8.5 27.8978 14.1449 33.5 21.064 33.5C21.701 33.5 22.3557 33.4635 23.0105 33.354C28.39 32.5511 31.9999 28.5547 34.0172 25.4891C36.0345 28.5547 39.6445 32.5511 45.024 33.354C45.661 33.4453 46.3157 33.5 46.9705 33.5C53.8541 33.5 59.499 27.8978 59.499 21ZM22.3727 28.9745C21.9303 29.0475 21.488 29.0657 21.0456 29.0657C16.4801 29.0657 12.7817 25.4343 12.7817 21C12.7817 16.5475 16.4978 12.9343 21.0633 12.9343C21.5057 12.9343 21.948 12.9708 22.3904 13.0256C27.4691 13.7737 30.5659 18.938 31.6276 21C30.5482 23.0803 27.4337 28.2263 22.3727 28.9745ZM45.6078 13.0256C40.5292 13.7737 37.4147 18.938 36.3707 21C37.4147 23.0621 40.5292 28.2263 45.6078 28.9745C46.0502 29.0292 46.4926 29.0657 46.935 29.0657C51.4828 29.0657 55.1989 25.4526 55.1989 21C55.1989 16.5657 51.5005 12.9343 46.935 12.9343C46.4926 12.9343 46.0502 12.9708 45.6078 13.0256ZM17.5201 19.661H25.1186V22.0642H17.5201V19.661ZM50.4409 22.0817H47.8784V24.6077H45.4227V22.0817H42.8602V19.661H45.4227V17.135H47.8784V19.661H50.4409V22.0817Z" fill="white"/>
</g>
<g clip-path="url(#clip1_1068_8228)">
<rect width="55" height="20" transform="translate(6.5 39.5)" fill="white"/>
<path d="M12.8357 45.05H18.8157V46.753H14.9287V48.781H18.5037V50.471H14.9287V53.5H12.8357V45.05ZM24.8686 44.933C27.2736 44.933 28.4956 46.051 28.4956 49.275C28.4956 51.719 27.5986 53.63 24.8816 53.63C22.4506 53.63 21.3326 52.161 21.3326 49.366C21.3326 46.818 22.3076 44.933 24.8686 44.933ZM24.8816 51.927C26.1036 51.927 26.2726 51.225 26.2726 49.275C26.2726 47.208 26.1036 46.636 24.8686 46.636C23.7506 46.636 23.5556 47.299 23.5556 49.366C23.5556 51.069 23.6726 51.927 24.8816 51.927ZM30.7395 53.5V45.05H34.1455C36.4855 45.05 37.3695 46.246 37.3695 47.871C37.3695 49.028 36.9015 49.912 35.9785 50.406L37.6295 53.5H35.1595L33.8855 50.822H32.8325V53.5H30.7395ZM33.9375 49.145C34.6655 49.145 35.1465 48.82 35.1465 47.884C35.1465 47.13 34.8735 46.753 33.8985 46.753H32.8325V49.145H33.9375ZM44.4235 50.211V45.05H46.4385V50.601C46.4385 53.097 44.5275 53.63 43.0325 53.63C41.5895 53.63 39.7435 53.149 39.7435 50.588V45.05H41.8365V50.198C41.8365 51.602 42.3305 51.927 43.1235 51.927C44.0725 51.927 44.4235 51.498 44.4235 50.211ZM53.9994 53.5V48.378L52.9334 50.64H51.5164L50.3334 48.131V53.5H48.6824V45.05H50.4894L52.2314 48.547L53.9734 45.05H55.6894V53.5H53.9994Z" fill="#008184"/>
</g>
<defs>
<clipPath id="clip0_1068_8228">
<rect width="51" height="25" fill="white" transform="translate(8.5 8.5)"/>
</clipPath>
<clipPath id="clip1_1068_8228">
<rect width="55" height="20" fill="white" transform="translate(6.5 39.5)"/>
</clipPath>
</defs>
</svg>
